# Blender v3.3.1 OBJ File: 'door.blend'
# www.blender.org
mtllib door.mtl
o Door_Cube.001
v -0.510870 0.004517 0.006218
v -0.510870 2.004517 0.006218
v 0.471300 0.004517 0.006218
v 0.471300 2.004517 0.006218
v -0.510870 0.004517 0.107294
v -0.510870 2.004517 0.107294
v 0.471300 0.004517 0.107294
v 0.471300 2.004517 0.107294
v 0.393067 0.989226 0.107294
v 0.391790 0.989226 0.166548
v 0.393067 1.029808 0.107294
v 0.391790 1.029808 0.166548
v 0.431332 0.989226 0.107294
v 0.430055 0.989226 0.166548
v 0.431332 1.029808 0.107294
v 0.430055 1.029808 0.166548
v 0.393067 0.989226 0.107294
v 0.391790 0.989226 0.166548
v 0.393067 1.029808 0.107294
v 0.391790 1.029808 0.166548
v 0.391790 0.989226 0.138785
v 0.391790 1.029808 0.138785
v 0.234689 0.989226 0.138785
v 0.234689 0.989226 0.166548
v 0.234689 1.029808 0.166548
v 0.234689 1.029808 0.138785
v 0.471300 1.004517 0.107294
v -0.019785 0.004517 0.107294
v -0.019785 2.004517 0.107294
v -0.510870 1.004517 0.107294
v -0.019785 1.004517 0.107294
v -0.019785 0.004517 0.006218
v -0.510870 1.004517 0.006218
v -0.019785 2.004517 0.006218
v 0.471300 1.004517 0.006218
v -0.019785 1.004517 0.006218
vt 0.495129 0.740657
vt -0.000000 0.000000
vt 0.495129 0.000000
vt 0.464093 0.248318
vt 0.491818 0.735216
vt 0.469220 0.734375
vt 0.500000 0.750000
vt -0.000000 0.000000
vt 0.500000 -0.000000
vt 0.250000 0.386642
vt 0.325063 0.363358
vt 0.250000 0.363358
vt 0.307621 0.597236
vt 0.192379 0.597236
vt 0.192379 0.375000
vt 0.404256 0.375000
vt 0.345744 0.567105
vt 0.345744 0.375000
vt 0.280860 0.992467
vt 0.298821 0.964497
vt 0.299068 0.992700
vt 0.250000 1.000000
vt 0.000000 0.875000
vt 0.000000 1.000000
vt 0.250000 0.875000
vt 0.000000 1.000000
vt 0.280613 0.964264
vt 0.299068 0.945186
vt 0.250000 0.828087
vt 0.250000 1.000000
vt 0.250000 1.000000
vt 0.125000 0.828087
vt 0.125000 1.000000
vt 0.375000 0.828087
vt 0.250000 0.828087
vt 0.293825 0.944800
vt 0.312642 0.828163
vt 0.313137 0.944800
vt 0.280613 0.944800
vt 0.293330 0.828163
vt 0.000000 0.000000
vt 0.000000 0.000000
vt 0.000000 0.000000
vt 0.312500 1.000000
vt 0.562500 0.250000
vt 0.312500 0.250000
vt 0.496753 0.735319
vt -0.000000 0.000000
vt 0.500000 -0.000000
vt 0.500000 0.736653
vt -0.000000 0.000000
vt 0.500000 -0.000000
vt 0.500000 0.750000
vt -0.000000 0.000000
vt 0.500000 -0.000000
vt 0.496753 0.735319
vt 0.000000 0.000000
vt 0.496753 0.000000
vt 0.496753 0.739323
vt 0.000000 0.000000
vt 0.496753 0.000000
vt 0.496753 0.737988
vt -0.000000 0.000000
vt 0.496753 0.000000
vt 0.000000 0.740657
vt 0.437030 0.734375
vt 0.431904 0.248318
vt 0.496282 0.248318
vt 0.000000 0.750000
vt 0.174937 0.363358
vt 0.174937 0.386642
vt 0.325063 0.386642
vt 0.192379 0.152764
vt 0.307621 0.375000
vt 0.307621 0.152764
vt 0.345744 0.182895
vt 0.404256 0.182895
vt 0.404256 0.567105
vt 0.250000 1.000000
vt 0.280860 0.944953
vt 0.375000 1.000000
vt 0.280118 0.828163
vt 0.000000 0.000000
vt 0.812500 0.750000
vt 0.437500 0.250000
vt -0.062500 0.000000
vt -0.062500 0.000000
vt -0.062500 0.000000
vt -0.003247 0.735319
vt 0.000000 0.736653
vt 0.000000 0.750000
vt 0.000000 0.735319
vt 0.000000 0.739323
vt 0.000000 0.737988
vn 0.0000 0.0000 -1.0000
vn 1.0000 0.0000 0.0000
vn 0.0000 0.0000 1.0000
vn -1.0000 0.0000 0.0000
vn 0.0000 -1.0000 0.0000
vn 0.0000 1.0000 0.0000
vn 0.9998 0.0000 0.0215
vn -0.9992 0.0000 -0.0405
vn -0.9998 0.0000 -0.0215
usemtl Material.004
s off
f 34/1/1 35/2/1 36/3/1
f 35/4/2 8/5/2 27/6/2
f 29/7/3 30/8/3 31/9/3
f 30/10/4 2/11/4 33/12/4
f 5/13/5 1/14/5 32/15/5
f 34/16/6 6/17/6 29/18/6
f 11/19/6 16/20/6 15/21/6
f 16/22/7 13/23/7 15/24/7
f 14/25/5 9/26/5 13/23/5
f 12/27/3 14/28/3 16/20/3
f 21/29/1 26/30/1 22/31/1
f 17/32/8 22/31/8 19/33/8
f 24/34/4 26/30/4 23/35/4
f 20/36/3 24/37/3 18/38/3
f 22/39/6 25/40/6 20/36/6
f 18/41/5 23/42/5 21/43/5
f 9/44/9 12/45/9 11/46/9
f 31/47/3 5/48/3 28/49/3
f 27/50/3 28/51/3 7/52/3
f 8/53/3 31/54/3 27/55/3
f 36/56/1 3/57/1 32/58/1
f 33/59/1 32/60/1 1/61/1
f 2/62/1 36/63/1 33/64/1
f 34/1/1 4/65/1 35/2/1
f 7/66/2 3/67/2 35/4/2
f 35/4/2 4/68/2 8/5/2
f 27/6/2 7/66/2 35/4/2
f 29/7/3 6/69/3 30/8/3
f 1/70/4 5/71/4 30/10/4
f 30/10/4 6/72/4 2/11/4
f 33/12/4 1/70/4 30/10/4
f 32/15/5 3/73/5 28/74/5
f 3/73/5 7/75/5 28/74/5
f 28/74/5 5/13/5 32/15/5
f 29/18/6 8/76/6 4/77/6
f 34/16/6 2/78/6 6/17/6
f 29/18/6 4/77/6 34/16/6
f 11/19/6 12/27/6 16/20/6
f 16/22/7 14/25/7 13/23/7
f 14/25/5 10/79/5 9/26/5
f 12/27/3 10/80/3 14/28/3
f 21/29/1 23/35/1 26/30/1
f 17/32/8 21/29/8 22/31/8
f 24/34/4 25/81/4 26/30/4
f 20/36/3 25/40/3 24/37/3
f 22/39/6 26/82/6 25/40/6
f 18/41/5 24/83/5 23/42/5
f 9/44/9 10/84/9 12/45/9
f 22/85/2 20/86/2 18/87/2
f 18/87/2 21/88/2 22/85/2
f 31/47/3 30/89/3 5/48/3
f 27/50/3 31/90/3 28/51/3
f 8/53/3 29/91/3 31/54/3
f 36/56/1 35/92/1 3/57/1
f 33/59/1 36/93/1 32/60/1
f 2/62/1 34/94/1 36/63/1
o Frame_Cube.002
v -1.001114 0.001438 0.000623
v 0.998886 0.001438 0.000623
v -1.001114 0.001438 0.825623
v 0.998886 0.001438 0.825623
v -0.551114 0.001438 0.000623
v -0.551114 2.101438 0.000623
v 0.548886 0.001438 0.000623
v 0.548886 2.101438 0.000623
v -0.551114 0.001438 0.150623
v -0.551114 2.101438 0.150623
v 0.548886 0.001438 0.150623
v 0.548886 2.101438 0.150623
v -0.451114 0.001438 0.000623
v -0.451114 2.001438 0.000623
v 0.448886 2.001438 0.000623
v 0.448886 0.001438 0.000623
v 0.448886 0.001438 0.150623
v 0.448886 2.001438 0.150623
v -0.451114 2.001438 0.150623
v -0.451114 0.001438 0.150623
vt 0.500000 0.843750
vt 1.000000 0.843750
vt 1.000000 0.000000
vt 0.626014 0.895748
vt 0.625000 0.984375
vt 0.981328 0.981805
vt 0.624294 0.893116
vt 0.624649 0.893087
vt 0.623986 0.890712
vt 0.621953 0.981805
vt 0.984375 0.984375
vt 0.621732 0.996403
vt 0.621953 0.919305
vt 0.981328 0.919305
vt 0.624418 0.892960
vt 0.624584 0.892999
vt 0.625305 0.885502
vt 0.640119 0.894432
vt 0.641131 0.886818
vt 0.984375 0.875000
vt 0.628047 0.893195
vt 0.628047 0.955695
vt 0.987422 0.955695
vt 0.984375 0.984375
vt 0.500000 0.000000
vt 0.640409 0.894315
vt 0.987422 0.893195
vn 0.0000 1.0000 0.0000
vn 0.0000 -1.0000 -0.0000
vn 1.0000 -0.0000 0.0000
vn -1.0000 -0.0000 0.0000
vn -0.0000 0.0000 1.0000
vn 0.0000 0.0000 -1.0000
usemtl Material.003
s off
f 40/95/10 38/96/10 37/97/10
f 51/98/11 54/99/11 55/100/11
f 47/101/12 43/102/12 44/103/12
f 55/100/12 56/104/12 49/105/12
f 41/106/13 45/107/13 46/108/13
f 51/98/13 52/109/13 53/110/13
f 46/108/10 48/111/10 44/103/10
f 47/112/14 48/113/14 54/99/14
f 44/103/15 51/98/15 50/114/15
f 45/115/14 56/116/14 55/117/14
f 43/102/15 52/109/15 51/98/15
f 41/106/15 42/118/15 50/114/15
f 48/111/14 46/108/14 55/100/14
f 40/95/10 37/97/10 39/119/10
f 51/98/11 55/100/11 50/114/11
f 47/101/12 44/103/12 48/111/12
f 55/100/12 49/105/12 50/114/12
f 41/106/13 46/108/13 42/118/13
f 51/98/13 53/110/13 54/99/13
f 46/108/10 44/103/10 42/118/10
f 47/112/14 54/99/14 53/120/14
f 44/103/15 50/114/15 42/118/15
f 45/115/14 55/117/14 46/121/14
f 43/102/15 51/98/15 44/103/15
f 41/106/15 50/114/15 49/105/15
f 48/111/14 55/100/14 54/99/14
