# Blender v3.3.1 OBJ File: 'door.blend'
# www.blender.org
mtllib door.mtl
o Door_Cube.001
v -0.510870 0.004517 0.006218
v -0.510870 2.004517 0.006218
v 0.471300 0.004517 0.006218
v 0.471300 2.004517 0.006218
v -0.510870 0.004517 0.107294
v -0.510870 2.004517 0.107294
v 0.471300 0.004517 0.107294
v 0.471300 2.004517 0.107294
v 0.393067 0.989226 0.107294
v 0.391790 0.989226 0.166548
v 0.393067 1.029808 0.107294
v 0.391790 1.029808 0.166548
v 0.431332 0.989226 0.107294
v 0.430055 0.989226 0.166548
v 0.431332 1.029808 0.107294
v 0.430055 1.029808 0.166548
v 0.393067 0.989226 0.107294
v 0.391790 0.989226 0.166548
v 0.393067 1.029808 0.107294
v 0.391790 1.029808 0.166548
v 0.391790 0.989226 0.138785
v 0.391790 1.029808 0.138785
v 0.234689 0.989226 0.138785
v 0.234689 0.989226 0.166548
v 0.234689 1.029808 0.166548
v 0.234689 1.029808 0.138785
v 0.471300 1.004517 0.107294
v -0.019785 0.004517 0.107294
v -0.019785 2.004517 0.107294
v -0.510870 1.004517 0.107294
v -0.019785 1.004517 0.107294
v -0.019785 0.004517 0.006218
v -0.510870 1.004517 0.006218
v -0.019785 2.004517 0.006218
v 0.471300 1.004517 0.006218
v -0.019785 1.004517 0.006218
vt 0.015947 0.726336
vt 0.484375 0.726336
vt 0.484375 0.009534
vt 0.015947 0.009534
vt 0.464093 0.248318
vt 0.491818 0.735216
vt 0.469220 0.734375
vt 0.484295 0.736891
vt 0.010309 0.007415
vt 0.484455 0.007415
vt 0.250000 0.386642
vt 0.325063 0.363358
vt 0.250000 0.363358
vt 0.307621 0.597236
vt 0.192379 0.597236
vt 0.192379 0.375000
vt 0.404256 0.375000
vt 0.345744 0.567105
vt 0.345744 0.375000
vt 0.280860 0.992467
vt 0.298821 0.964497
vt 0.299068 0.992700
vt 0.250000 1.000000
vt 0.000000 0.875000
vt 0.000000 1.000000
vt 0.250000 0.875000
vt 0.000000 1.000000
vt 0.280613 0.964264
vt 0.299068 0.945186
vt 0.250000 0.828087
vt 0.250000 1.000000
vt 0.250000 1.000000
vt 0.125000 0.828087
vt 0.125000 1.000000
vt 0.375000 0.828087
vt 0.250000 0.828087
vt 0.293825 0.944800
vt 0.312642 0.828163
vt 0.313137 0.944800
vt 0.280613 0.944800
vt 0.293330 0.828163
vt 0.000000 0.000000
vt 0.000000 0.000000
vt 0.000000 0.000000
vt 0.312500 1.000000
vt 0.562500 0.250000
vt 0.312500 0.250000
vt 0.483866 0.000000
vt -0.000000 0.734375
vt 0.487113 0.734375
vt 0.015625 0.000000
vt 0.484375 0.734375
vt 0.015625 0.734375
vt 0.015596 0.737988
vt 0.484375 0.008475
vt 0.015654 0.008475
vt 0.011276 0.009269
vt 0.485825 0.009269
vt 0.485825 0.729873
vt 0.011276 0.729873
vt 0.482578 0.011123
vt 0.011598 0.011123
vt 0.011598 0.725636
vt 0.482578 0.725636
vt 0.437030 0.734375
vt 0.431904 0.248318
vt 0.496282 0.248318
vt 0.484375 0.737388
vt 0.014175 0.737809
vt 0.011598 0.000000
vt 0.174937 0.363358
vt 0.174937 0.386642
vt 0.325063 0.386642
vt 0.192379 0.152764
vt 0.307621 0.375000
vt 0.307621 0.152764
vt 0.345744 0.182895
vt 0.404256 0.182895
vt 0.404256 0.567105
vt 0.250000 1.000000
vt 0.280860 0.944953
vt 0.375000 1.000000
vt 0.280118 0.828163
vt 0.000000 0.000000
vt 0.812500 0.750000
vt 0.437500 0.250000
vt -0.062500 0.000000
vt -0.062500 0.000000
vt -0.062500 0.000000
vt 0.482578 0.015625
vt 0.007062 0.015625
vt 0.010309 0.734375
vt 0.015625 0.015625
vt 0.484375 0.015625
vt 0.015625 0.737452
vt 0.485280 0.737187
vt 0.483470 0.000000
vt 0.484375 0.726960
vt 0.015625 0.726960
vt 0.015625 0.009269
vt 0.484375 0.009269
vn 0.0000 0.0000 -1.0000
vn 1.0000 0.0000 0.0000
vn 0.0000 0.0000 1.0000
vn -1.0000 0.0000 0.0000
vn 0.0000 -1.0000 0.0000
vn 0.0000 1.0000 0.0000
vn 0.9998 0.0000 0.0215
vn -0.9992 0.0000 -0.0405
vn -0.9998 0.0000 -0.0215
usemtl Material.001
s off
f 2/1/1 34/2/1 36/3/1 33/4/1
f 35/5/2 8/6/2 27/7/2
f 29/8/3 30/9/3 31/10/3
f 30/11/4 2/12/4 33/13/4
f 5/14/5 1/15/5 32/16/5
f 34/17/6 6/18/6 29/19/6
f 11/20/6 16/21/6 15/22/6
f 16/23/7 13/24/7 15/25/7
f 14/26/5 9/27/5 13/24/5
f 12/28/3 14/29/3 16/21/3
f 21/30/1 26/31/1 22/32/1
f 17/33/8 22/32/8 19/34/8
f 24/35/4 26/31/4 23/36/4
f 20/37/3 24/38/3 18/39/3
f 22/40/6 25/41/6 20/37/6
f 18/42/5 23/43/5 21/44/5
f 9/45/9 12/46/9 11/47/9
f 31/48/3 5/49/3 28/50/3
f 27/51/3 28/52/3 7/53/3
f 8/54/3 31/55/3 27/56/3
f 33/57/1 36/58/1 32/59/1 1/60/1
f 36/61/1 35/62/1 3/63/1 32/64/1
f 7/65/2 3/66/2 35/5/2
f 35/5/2 4/67/2 8/6/2
f 27/7/2 7/65/2 35/5/2
f 29/68/3 6/69/3 30/70/3
f 1/71/4 5/72/4 30/11/4
f 30/11/4 6/73/4 2/12/4
f 33/13/4 1/71/4 30/11/4
f 32/16/5 3/74/5 28/75/5
f 3/74/5 7/76/5 28/75/5
f 28/75/5 5/14/5 32/16/5
f 29/19/6 8/77/6 4/78/6
f 34/17/6 2/79/6 6/18/6
f 29/19/6 4/78/6 34/17/6
f 11/20/6 12/28/6 16/21/6
f 16/23/7 14/26/7 13/24/7
f 14/26/5 10/80/5 9/27/5
f 12/28/3 10/81/3 14/29/3
f 21/30/1 23/36/1 26/31/1
f 17/33/8 21/30/8 22/32/8
f 24/35/4 25/82/4 26/31/4
f 20/37/3 25/41/3 24/38/3
f 22/40/6 26/83/6 25/41/6
f 18/42/5 24/84/5 23/43/5
f 9/45/9 10/85/9 12/46/9
f 22/86/2 20/87/2 18/88/2
f 18/88/2 21/89/2 22/86/2
f 31/90/3 30/91/3 5/92/3
f 27/93/3 31/94/3 28/52/3
f 8/95/3 29/96/3 31/97/3
f 34/98/1 4/99/1 35/100/1 36/101/1
o Frame_Cube.002
v -0.600000 0.000000 0.000000
v 0.600000 0.000000 0.000000
v -0.600000 -0.200000 1.800000
v 0.600000 -0.200000 1.800000
v -0.551114 0.001438 0.000623
v -0.551114 2.101438 0.000623
v 0.548886 0.001438 0.000623
v 0.548886 2.101438 0.000623
v -0.551114 0.001438 0.150623
v -0.551114 2.101438 0.150623
v 0.548886 0.001438 0.150623
v 0.548886 2.101438 0.150623
v -0.451114 0.001438 0.000623
v -0.451114 2.001438 0.000623
v 0.448886 2.001438 0.000623
v 0.448886 0.001438 0.000623
v 0.448886 0.001438 0.150623
v 0.448886 2.001438 0.150623
v -0.451114 2.001438 0.150623
v -0.451114 0.001438 0.150623
vt 0.626014 0.895748
vt 0.625000 0.984375
vt 0.981328 0.981805
vt 0.624294 0.893116
vt 0.624649 0.893087
vt 0.623986 0.890712
vt 0.621953 0.981805
vt 0.984375 0.984375
vt 0.621732 0.996403
vt 0.621953 0.919305
vt 0.981328 0.919305
vt 0.624418 0.892960
vt 0.624584 0.892999
vt 0.625305 0.885502
vt 0.640119 0.894432
vt 0.641131 0.886818
vt 0.984375 0.875000
vt 0.628047 0.893195
vt 0.628047 0.955695
vt 0.987422 0.955695
vt 0.921875 0.890625
vt 0.968750 0.984375
vt 0.656250 0.984375
vt 0.984375 0.984375
vt 0.640409 0.894315
vt 0.987422 0.893195
vt 0.508182 0.861548
vt 0.748977 0.863229
vt 0.751023 0.006726
vt 0.968750 0.984375
vt 0.508182 0.006807
vn 0.0000 -1.0000 -0.0000
vn 1.0000 -0.0000 0.0000
vn -1.0000 -0.0000 0.0000
vn 0.0000 1.0000 0.0000
vn -0.0000 0.0000 1.0000
vn 0.0000 0.0000 -1.0000
vn 0.0000 0.9939 0.1104
usemtl Material.001
s off
f 51/102/10 54/103/10 55/104/10
f 47/105/11 43/106/11 44/107/11
f 55/104/11 56/108/11 49/109/11
f 41/110/12 45/111/12 46/112/12
f 51/102/12 52/113/12 53/114/12
f 46/112/13 48/115/13 44/107/13
f 47/116/14 48/117/14 54/103/14
f 44/107/15 51/102/15 50/118/15
f 45/119/14 56/120/14 55/121/14
f 43/106/15 52/113/15 51/102/15
f 50/122/15 49/123/15 41/124/15
f 48/115/14 46/112/14 55/104/14
f 51/102/10 55/104/10 50/118/10
f 47/105/11 44/107/11 48/115/11
f 55/104/11 49/109/11 50/118/11
f 41/110/12 46/112/12 42/125/12
f 51/102/12 53/114/12 54/103/12
f 46/112/13 44/107/13 42/125/13
f 47/116/14 54/103/14 53/126/14
f 44/107/15 50/118/15 42/125/15
f 45/119/14 55/121/14 46/127/14
f 43/106/15 51/102/15 44/107/15
f 48/115/14 55/104/14 54/103/14
f 40/128/16 38/129/16 37/130/16
f 50/122/15 41/124/15 42/131/15
f 40/128/16 37/130/16 39/132/16
